<svg xmlns="http://www.w3.org/2000/svg" xmlns:xlink="http://www.w3.org/1999/xlink" viewBox="0 0 821.16 222.06"><defs><style>.cls-1{fill:url(#Degradado_sin_nombre_8);}.cls-2{fill:#fff;}.cls-3{fill:#aa82f0;}</style><linearGradient id="Degradado_sin_nombre_8" x1="96.28" y1="225.53" x2="96.28" y2="18.33" gradientTransform="translate(24.43 -17.47) rotate(15)" gradientUnits="userSpaceOnUse"><stop offset="0" stop-color="#628cf1"/><stop offset="1" stop-color="#aa82f0"/></linearGradient></defs><g id="Capa_2" data-name="Capa 2"><g id="test1"><path class="cls-1" d="M184.16,44.31h-.08l-.64,0h-.06l-.76.06h0c-1,.08-2,.21-3,.37s-2,.38-3,.62l-1,.26-1,.28-.55.18-1.1.37-.54.2-.11,0c-.32.13-.65.25-1,.39s-.71.3-1.06.45l0,0-1,.47a39,39,0,0,0-3.52,2l-.49.31c-.48.32-1,.64-1.42,1l-.47.33-.91.71c-.46.35-.9.72-1.33,1.1l-.44.38-.85.79s0,0,0,.05h0c-.27.25-.52.5-.77.76s-.53.55-.8.83l-.39.43-.69.8c-.3.36-.6.71-.88,1.08s-.43.55-.63.83l-.35.48c-.34.47-.67,1-1,1.45-.11.17-.22.33-.32.5-.53.85-1,1.73-1.48,2.63l-.24.48c-.09.17-.18.35-.26.53s-.17.36-.25.55-.17.36-.25.55l-.22.51c-.21.52-.42,1-.61,1.58l-.12.35c-.05.12-.09.25-.14.38s-.11.34-.17.51c0,0,0,0,0,.07l-.18.58c-.06.2-.12.39-.17.59s-.12.4-.17.59L123.18,171a68.93,68.93,0,0,1-49.12,48.78,69.87,69.87,0,0,1-36-.09q-.84-.21-1.68-.45c-8.73-2.46-19.11-7.29-29.72-16.91A85.56,85.56,0,0,1,1.8,186.7,87,87,0,0,1,1,156.09c15.67,18.16,31.49,26.16,44.31,29.75q.84.24,1.68.45a34.71,34.71,0,0,0,26.4-3.4A34.07,34.07,0,0,0,89.54,162l22.35-83.39c.09-.33.18-.67.28-1l.3-1c.1-.33.21-.64.31-1,0-.07,0-.14.07-.21l.28-.81c.1-.29.21-.57.31-.84l.08-.21c.11-.3.23-.59.35-.89s.24-.6.37-.9a1,1,0,0,1,0-.1l.39-.89.43-.93c.11-.24.23-.48.35-.72s.11-.22.17-.33.21-.43.32-.65l.17-.32.23-.42a2.58,2.58,0,0,1,.18-.32,2.12,2.12,0,0,1,.11-.21l.3-.53.54-.93.26-.42a2.39,2.39,0,0,1,.13-.21l.22-.36.06-.09c.14-.23.29-.44.43-.66s.27-.42.41-.62l.22-.32.07-.1.41-.58a.18.18,0,0,1,0-.07c.14-.21.29-.41.44-.61l.22-.3c.15-.21.31-.41.47-.61a51.29,51.29,0,0,1,4.64-5.23l.62-.6.56-.52.35-.32.64-.57.62-.53.32-.27c.19-.16.37-.32.57-.47s.5-.41.75-.6h0l.78-.6.79-.58c.25-.19.51-.37.76-.54l.17-.12.69-.47c.81-.53,1.63-1,2.46-1.54l0,0c.28-.17.57-.33.86-.49,1.14-.64,2.31-1.24,3.5-1.8h0c.88-.41,1.78-.8,2.68-1.16l1.85-.7.1,0c.55-.19,1.09-.38,1.65-.55,1-.32,2-.6,3-.86s1.93-.46,2.91-.65a53.67,53.67,0,0,1,6-.79,51.74,51.74,0,0,1,5.44-.13c.73,0,1.46.06,2.19.11l1.11.09.61.06.95.11h.09l.66.08.45.07.48.07.37.06L171,41l.33.07c.86.15,1.71.32,2.57.52l.55.13.41.1.35.09.55.14Z"/><path class="cls-2" d="M184.16,44.31l-8.41-2.26-.55-.14-.35-.09-.41-.1-.55-.13c-.86-.2-1.71-.37-2.57-.52L171,41l-.47-.07-.37-.06-.48-.07-.45-.07-.66-.08h-.09l-.95-.11-.61-.06-1.11-.09c-.73-.05-1.46-.09-2.19-.11a51.45,51.45,0,0,0-11.4.92c-1,.19-2,.41-2.91.65s-2,.54-3,.85a37.73,37.73,0,0,1-5.56-31.47A38.22,38.22,0,0,1,145.56,0,52.64,52.64,0,0,0,184.16,44.31Z"/><g id="Capa_2-2" data-name="Capa 2"><path class="cls-2" d="M228.41,74.12c-2.95-2.45-10-1.77-13.57-.29v66c-.74,8.51,2.65,30.25-4.66,35.78-6.62,6.41-20.87,4.58-28.88.58-16.81,22.78,39,21.12,44.88,4.64,7-10.13,3.61-33.24,4.36-45.65C229.68,132.33,232.77,74.11,228.41,74.12Z"/><path class="cls-2" d="M307.11,105c-20.07-11.72-51.27-5.68-61.74,16.34-10.56,20.76-6.63,54.42,15.31,66.44,20.15,11.61,51.66,5.95,61.94-16.44C333.09,150.33,329,117.05,307.11,105Zm-2.42,66.63c-9.06,12.31-32.43,12.19-41.49.1-9.95-11-10-39.5.2-50.58,9.3-12.25,32.13-12.27,41.29,0C314.64,132.27,314.64,160.45,304.69,171.6Z"/><path class="cls-2" d="M378.06,99.17c-14,.28-30.29,3-38.67,13.25-3,3.87-1.15,22.69-1.65,27.56v45.07c-.42,8.32,10.11,7.74,15.51,5.61V118.32c10.41-5.85,25.78-7.62,38.19-5C397,104.68,391.89,98.84,378.06,99.17Z"/><path class="cls-2" d="M472.76,66c-2.85-2.47-10-1.74-13.47-.29v38.87c-19.71-10.55-49-5.9-60.19,14.91-11,20.7-8.08,59.34,16.76,69.24,14.46,7.42,55.73,8.08,58.94-12.38V110.58C474,107.12,476.93,67.51,472.76,66ZM451.44,179.34c-36.28,9.24-50.74-22.74-38.29-52.9,8.24-17,32.58-18.3,46.14-8.09v57.41A38.26,38.26,0,0,1,451.44,179.34Z"/><path class="cls-2" d="M501.84,102.36c-2.95-2.53-10-1.71-13.47-.29,0,5.66,0,40.78,0,45.45v37.53c-.43,8.32,10.11,7.74,15.51,5.61V140C503.06,136,506,104.57,501.84,102.36Z"/><path class="cls-2" d="M496.12,63.77c-13.09-.45-13.09,19.79,0,19.34C509.05,83.71,509.06,63.18,496.12,63.77Z"/><path class="cls-3" d="M603.62,77.6c-18.22-8-52.38-10.47-71,.09-5.34,1-.38,96.76-2,100.59.24,21.83,62.41,16.24,74,8.51C645.23,168.38,645.6,94.88,603.62,77.6Zm-4.17,85.49c-9.54,11.09-29.68,12.17-44.39,9.19V92c28.83-5.84,55.77,6.75,54.47,39.85Q609.53,152.55,599.45,163.09Z"/><path class="cls-3" d="M709.85,102c-21.92-11.58-55.32-3.48-64.46,21.57-8.75,22.53-2.61,54.47,20.84,64.7,11.84,6,30.6,6.95,43.72,3.58,13-2.09,23.63-15.23,10.47-24.18-16.23,11.39-49.16,12.21-54.67-11.54l54.08-7.8c6.76-.86,10.72-4,10.67-11.22C730.63,121.94,723,109,709.85,102ZM664.28,139.5c-1.06-27.93,40.48-35,43.53-6.48Z"/><path class="cls-3" d="M818.31,99.94c-5-3.62-14.12-2.62-19.19.19-5.34,23.07-13.3,48.74-20.94,71.18h-.77c-5.91-17.68-14.79-45.18-20.16-63.44C755,95.09,739,95.18,731.66,103c7.74,26.95,19.18,58.48,31.21,83.56,5.15,8.43,21.25,7.06,28.69,2.71q3.3-6.18,7.37-15.38C803.15,162.08,829.79,106.15,818.31,99.94Z"/></g></g></g></svg>