<svg xmlns="http://www.w3.org/2000/svg" xmlns:xlink="http://www.w3.org/1999/xlink" viewBox="0 0 733.09 181.81"><defs><style>.cls-1{fill:url(#Degradado_sin_nombre_8);}.cls-2{fill:#fff;}.cls-3{fill:#aa82f0;}</style><linearGradient id="Degradado_sin_nombre_8" x1="372.2" y1="137.36" x2="372.2" y2="-69.84" gradientTransform="translate(-264.91 -43.97) rotate(15)" gradientUnits="userSpaceOnUse"><stop offset="0" stop-color="#628cf1"/><stop offset="1" stop-color="#aa82f0"/></linearGradient></defs><g id="Capa_2" data-name="Capa 2"><g id="Capa_13" data-name="Capa 13"><path class="cls-1" d="M184.16,4.06h-.08l-.64,0h-.06l-.76.06h0c-1,.08-2,.21-3,.38s-2,.37-3,.61l-1,.26-1,.28-.55.18-1.1.37-.54.2-.11,0-1,.39-1.06.46h0l-1,.47a39,39,0,0,0-3.52,2l-.49.31c-.48.32-1,.64-1.42,1l-.47.34-.91.7c-.46.35-.9.72-1.33,1.1l-.44.38-.85.79,0,.05h0c-.27.25-.52.5-.77.76s-.53.55-.8.84l-.39.42-.69.8c-.3.36-.6.72-.88,1.08s-.43.55-.63.83l-.35.48c-.34.47-.67,1-1,1.45-.11.17-.22.33-.32.5-.53.85-1,1.73-1.48,2.63l-.24.48c-.09.18-.18.36-.26.54s-.17.36-.25.54-.17.36-.25.55-.15.34-.22.52c-.21.51-.42,1-.61,1.57l-.12.35c-.05.12-.09.25-.14.38s-.11.34-.17.51,0,.05,0,.07l-.18.58c-.06.2-.12.4-.17.59s-.12.4-.17.6l-26.59,99.23a68.93,68.93,0,0,1-49.12,48.77,69.87,69.87,0,0,1-36-.09q-.84-.21-1.68-.45c-8.73-2.46-19.11-7.29-29.72-16.9a85.93,85.93,0,0,1-4.83-15.6A86.93,86.93,0,0,1,1,115.85C16.65,134,32.47,142,45.29,145.59q.84.24,1.68.45a34.71,34.71,0,0,0,26.4-3.4A34.07,34.07,0,0,0,89.54,121.7l22.35-83.38c.09-.34.18-.68.28-1l.3-1c.1-.32.21-.64.31-1,0-.07,0-.14.07-.21l.28-.81.31-.84.08-.21c.11-.3.23-.59.35-.89s.24-.6.37-.9l0-.1.39-.89.43-.93c.11-.24.23-.48.35-.71a3.59,3.59,0,0,1,.17-.34c.1-.22.21-.43.32-.65l.17-.32.23-.42a2.58,2.58,0,0,1,.18-.32,2.12,2.12,0,0,1,.11-.21l.3-.53.54-.93.26-.42a2.39,2.39,0,0,1,.13-.21l.22-.36.06-.09.43-.66c.13-.21.27-.42.41-.62a3.46,3.46,0,0,1,.22-.31.36.36,0,0,1,.07-.1c.13-.2.27-.4.41-.59l0-.07c.14-.21.29-.41.44-.61l.22-.3.47-.61A51.29,51.29,0,0,1,125.5,15l.62-.59.56-.53.35-.32.64-.57.62-.53.32-.27c.19-.16.37-.32.57-.47l.75-.6h0l.78-.6.79-.58c.25-.19.51-.36.76-.54l.17-.12.69-.46c.81-.54,1.63-1,2.46-1.55a.05.05,0,0,0,0,0l.86-.49c1.14-.64,2.31-1.24,3.5-1.79l0,0c.88-.41,1.78-.8,2.68-1.16l1.85-.7.1,0c.55-.19,1.09-.38,1.65-.55,1-.32,2-.6,3-.86s1.93-.45,2.91-.65a53.67,53.67,0,0,1,6-.79A51.74,51.74,0,0,1,163.61,0c.73,0,1.46.06,2.19.11l1.11.09.61.06.95.11h.09l.66.08.45.07.48.07.37.06.47.08.33.06c.86.15,1.71.32,2.57.52l.55.13.41.1.35.09.55.14Z"/><g id="Capa_2-2" data-name="Capa 2"><path class="cls-2" d="M219.05,67.12c-16.93-11.72-49.74-5.68-66.12,16.34-16.11,20.75-21.21,54.41-2.49,66.44,17,11.61,50.07,5.95,66.35-16.44C232.87,112.48,237.74,79.19,219.05,67.12Zm-20.27,66.63c-12.36,12.3-35.7,12.19-41.51.1-7-11.06.55-39.5,13.74-50.58C183.6,71,206.44,71,212.3,83.27,219.27,94.42,211.72,122.6,198.78,133.75Z"/><path class="cls-2" d="M291.56,61.31c-14,.28-31.09,3-42.22,13.25-4.09,3.88-7.24,22.7-9,27.57-1.53,5.72-10.35,38.62-12.07,45.06-2.66,8.32,8,7.75,14,5.61l19.39-72.34c12-5.84,27.82-7.61,39.53-5C309,66.83,305.48,61,291.56,61.31Z"/><path class="cls-2" d="M395.15,28.14c-2.19-2.47-9.5-1.75-13.4-.29L371.34,66.72c-16.89-10.55-47.4-5.9-64.19,14.9-16.49,20.71-24,59.35-1.78,69.25,12.46,7.42,53.55,8.07,62.25-12.38l16.58-61.9,1-3.86C385.32,69.26,398.91,29.66,395.15,28.14Zm-51.7,113.35c-38.75,9.24-44.65-22.74-24.11-52.9,12.79-17,37.48-18.3,48.31-8.09l-15.39,57.41A50.85,50.85,0,0,1,343.45,141.49Z"/><path class="cls-2" d="M414.48,64.5c-2.27-2.53-9.51-1.71-13.39-.28-1.52,5.66-10.93,40.78-12.18,45.45l-10.06,37.52c-2.65,8.32,8,7.75,14,5.61,1.45-5.39,12.47-46.53,13.58-50.67C406.69,98.16,418,66.72,414.48,64.5Z"/><path class="cls-2" d="M419.1,25.92c-13-.45-18.39,19.79-5.18,19.34C426.69,45.85,432.2,25.32,419.1,25.92Z"/><path class="cls-3" d="M522.89,39.75c-16.06-8-49.57-10.48-71,.09-5.61,1-26.31,96.76-29,100.59-5.61,21.82,58.05,16.23,71.77,8.5C540.18,130.53,560.24,57,522.89,39.75Zm-27.07,85.49c-12.51,11.09-32.94,12.17-46.86,9.19l21.51-80.27c30.4-5.84,54,6.75,43.8,39.84Q508.72,114.7,495.82,125.24Z"/><path class="cls-3" d="M622.6,64.12c-18.82-11.58-54.39-3.48-70.24,21.57-14.79,22.53-17.21,54.47,3.5,64.69,10.22,6,28.74,7,42.76,3.58,13.57-2.08,27.72-15.23,17-24.18C596.29,141.18,563.14,142,564,118.25l56.17-7.81c7-.85,11.79-4,13.66-11.22C638,84.09,633.83,71.1,622.6,64.12ZM567,101.64c6.43-27.92,49.86-35,45.27-6.48Z"/><path class="cls-3" d="M731.6,62.09c-4-3.62-13.42-2.62-19.24.19-11.53,23.07-26.36,48.74-40,71.18h-.78c-1.17-17.69-2.68-45.18-3.16-63.44,1.2-12.79-14.9-12.69-24.29-4.84.52,26.95,3.51,58.48,8.82,83.56,2.89,8.42,19.36,7,28,2.71q5-6.19,11.48-15.38C699.79,124.22,741.41,68.3,731.6,62.09Z"/></g></g></g></svg>